<svg xmlns="http://www.w3.org/2000/svg" viewBox="0 0 64 64" role="img" aria-labelledby="title desc">
  <title id="title">Gemma Forge logo</title>
  <desc id="desc">A forge flame over an anvil inside a green mark.</desc>
  <rect width="64" height="64" rx="12" fill="#0f3f38"/>
  <path d="M15 46h34l-4 7H20z" fill="#d5f2ea"/>
  <path d="M19 36h28c3 0 5 2 5 5H14c0-3 2-5 5-5z" fill="#d5f2ea"/>
  <path d="M39 28c0 6-4 10-9 10s-9-4-9-10c0-7 7-10 7-18 7 5 11 10 11 18z" fill="#f29f3d"/>
  <path d="M34 29c0 4-3 7-6 7s-6-3-6-7c0-5 5-7 5-12 5 4 7 7 7 12z" fill="#fff1b8"/>
  <path d="M42 12l8 5-18 18-5-5z" fill="#d5f2ea"/>
  <path d="M47 8l9 9-4 4-9-9z" fill="#8fbfb5"/>
</svg>
